<?xml version="1.0" encoding="UTF-8" standalone="no"?>
<svg
   xmlns:dc="http://purl.org/dc/elements/1.1/"
   xmlns:cc="http://creativecommons.org/ns#"
   xmlns:rdf="http://www.w3.org/1999/02/22-rdf-syntax-ns#"
   xmlns:svg="http://www.w3.org/2000/svg"
   xmlns="http://www.w3.org/2000/svg"
   xmlns:sodipodi="http://sodipodi.sourceforge.net/DTD/sodipodi-0.dtd"
   xmlns:inkscape="http://www.inkscape.org/namespaces/inkscape"
   version="1.1"
   width="24"
   height="24"
   viewBox="0 0 24 24"
   id="svg2"
   inkscape:version="0.91 r13725"
   sodipodi:docname="pin.svg">
  <metadata
     id="metadata10">
    <rdf:RDF>
      <cc:Work
         rdf:about="">
        <dc:format>image/svg+xml</dc:format>
        <dc:type
           rdf:resource="http://purl.org/dc/dcmitype/StillImage" />
        <dc:title></dc:title>
      </cc:Work>
    </rdf:RDF>
  </metadata>
  <defs
     id="defs8" />
  <sodipodi:namedview
     pagecolor="#ffffff"
     bordercolor="#666666"
     borderopacity="1"
     objecttolerance="10"
     gridtolerance="10"
     guidetolerance="10"
     inkscape:pageopacity="0"
     inkscape:pageshadow="2"
     inkscape:window-width="1280"
     inkscape:window-height="751"
     id="namedview6"
     showgrid="false"
     inkscape:zoom="6.9532167"
     inkscape:cx="-0.55486259"
     inkscape:cy="0.83837516"
     inkscape:window-x="0"
     inkscape:window-y="0"
     inkscape:window-maximized="1"
     inkscape:current-layer="svg2" />
  <path
     style="fill:none"
     d="m 6.7372881,21.69195 c -0.069915,-0.07941 -0.1271186,-0.192077 -0.1271186,-0.250369 0,-0.05829 -0.049031,-0.105988 -0.1089589,-0.105988 -0.1170196,0 -0.3995157,-0.24981 -0.3995157,-0.353291 0,-0.105233 -0.4921524,-0.561963 -0.6055469,-0.561963 -0.058475,0 -0.1063175,-0.05028 -0.1063175,-0.111741 0,-0.06146 -0.1372881,-0.239988 -0.3050847,-0.396734 C 4.9169492,19.755119 4.779661,19.576589 4.779661,19.515131 c 0,-0.06146 -0.047843,-0.111741 -0.1063174,-0.111741 -0.1133945,0 -0.605547,-0.45673 -0.605547,-0.561963 0,-0.08284 -0.2724755,-0.353291 -0.3559322,-0.353291 -0.083457,0 -0.3559322,-0.270454 -0.3559322,-0.353292 0,-0.105232 -0.4921525,-0.561963 -0.605547,-0.561963 -0.058475,0 -0.1063174,-0.06864 -0.1063174,-0.152542 0,-0.0839 -0.045763,-0.152542 -0.1016949,-0.152542 -0.055932,0 -0.1016949,-0.09153 -0.1016949,-0.20339 0,-0.149153 0.067797,-0.20339 0.2542373,-0.20339 0.1581921,0 0.2542372,-0.05763 0.2542372,-0.152542 0,-0.125424 0.180791,-0.152543 1.0169492,-0.152543 0.8361582,0 1.0169492,0.02712 1.0169492,0.152543 0,0.08475 0.090395,0.152542 0.2033898,0.152542 0.1118644,0 0.2033898,0.04576 0.2033898,0.101695 0,0.05593 0.2059322,0.101695 0.4576271,0.101695 0.2516949,0 0.4576271,-0.04576 0.4576271,-0.101695 0,-0.05593 0.068644,-0.101695 0.1525424,-0.101695 0.083898,0 0.1525424,-0.05028 0.1525424,-0.111741 0,-0.06146 0.1372881,-0.239988 0.3050847,-0.396734 0.1677967,-0.156745 0.3050848,-0.335276 0.3050848,-0.396733 0,-0.06146 0.047843,-0.111741 0.1063174,-0.111741 0.1133946,0 0.605547,-0.45673 0.605547,-0.561963 0,-0.103481 0.2824961,-0.353291 0.3995157,-0.353291 0.059927,0 0.1089589,-0.114407 0.1089589,-0.254238 0,-0.13983 -0.049031,-0.254237 -0.1089589,-0.254237 -0.1794636,0 -0.3995157,-0.276065 -0.3995157,-0.50121 0,-0.11586 -0.045763,-0.210654 -0.1016949,-0.210654 -0.055932,0 -0.1016949,-0.114407 -0.1016949,-0.254238 0,-0.13983 -0.045763,-0.254237 -0.101695,-0.254237 -0.055932,0 -0.1016949,-0.251695 -0.1016949,-0.559322 0,-0.429379 -0.035439,-0.559322 -0.1525423,-0.559322 -0.1248885,0 -0.1525424,-0.175141 -0.1525424,-0.966102 0,-0.79096 0.027654,-0.966101 0.1525424,-0.966101 0.1186441,0 0.1525423,-0.135594 0.1525423,-0.6101699 0,-0.338983 0.045198,-0.6101695 0.1016949,-0.6101695 0.055932,0 0.101695,-0.091525 0.101695,-0.2033898 0,-0.1118644 0.045763,-0.2033899 0.1016949,-0.2033899 0.055932,0 0.1016949,-0.1144067 0.1016949,-0.2542372 0,-0.1398306 0.045763,-0.2542373 0.1016949,-0.2542373 0.055932,0 0.1016949,-0.1144068 0.1016949,-0.2542373 0,-0.1398305 0.049031,-0.2542373 0.1089589,-0.2542373 0.1170196,0 0.3995157,-0.2498105 0.3995157,-0.3532908 0,-0.1052331 0.4921524,-0.5619635 0.6055469,-0.5619635 0.058475,0 0.1063175,-0.050284 0.1063175,-0.1117413 0,-0.061458 0.1372881,-0.2399877 0.3050848,-0.3967332 0.1677966,-0.1567456 0.3050847,-0.3352755 0.3050847,-0.3967332 0,-0.061458 0.1043043,-0.1117414 0.2317873,-0.1117414 0.127483,0 0.297755,-0.091525 0.378382,-0.2033898 0.08063,-0.1118644 0.2509,-0.2033899 0.378382,-0.2033899 0.127483,0 0.231788,-0.049031 0.231788,-0.1089588 0,-0.1620221 0.26772,-0.3995157 0.450363,-0.3995157 0.08789,0 0.159806,-0.045763 0.159806,-0.101695 0,-0.055932 0.06864,-0.1016949 0.152543,-0.1016949 0.0839,0 0.152542,-0.068644 0.152542,-0.1525423 0,-0.083898 0.08142,-0.1525424 0.18094,-0.1525424 0.09952,0 0.246907,-0.091525 0.327534,-0.2033898 0.08063,-0.1118645 0.2509,-0.2033899 0.378383,-0.2033899 0.138236,0 0.231787,-0.061567 0.231787,-0.1525424 0,-0.084746 0.0904,-0.1525423 0.20339,-0.1525423 0.111864,0 0.20339,-0.045763 0.20339,-0.1016949 0,-0.055932 0.06864,-0.101695 0.152542,-0.101695 0.0839,0 0.152542,-0.045763 0.152542,-0.1016949 0,-0.055932 0.09153,-0.1016949 0.20339,-0.1016949 0.112994,0 0.20339,-0.067797 0.20339,-0.1525424 0,-0.094915 0.09605,-0.1525423 0.254237,-0.1525423 0.139831,0 0.254238,-0.045763 0.254238,-0.1016949 0,-0.055932 0.09153,-0.101695 0.203389,-0.101695 0.111865,0 0.20339,-0.045763 0.20339,-0.1016949 0,-0.055932 0.139368,-0.1016949 0.309707,-0.1016949 0.304988,0 0.808937,0.3772419 0.808937,0.605547 0,0.058475 0.04784,0.1063174 0.106317,0.1063174 0.113395,0 0.605548,0.4567304 0.605548,0.5619635 0,0.082837 0.272475,0.3532908 0.355932,0.3532908 0.08346,0 0.355932,0.2704534 0.355932,0.3532907 0,0.1052331 0.492153,0.5619635 0.605548,0.5619635 0.05847,0 0.106317,0.050284 0.106317,0.1117413 0,0.061458 0.137288,0.2399877 0.305084,0.3967333 0.167797,0.1567455 0.305085,0.3352754 0.305085,0.3967332 0,0.061458 0.04784,0.1117413 0.106317,0.1117413 0.113395,0 0.605547,0.4567304 0.605547,0.5619635 0,0.082837 0.272476,0.3532908 0.355933,0.3532908 0.08346,0 0.355932,0.2704534 0.355932,0.3532908 0,0.105233 0.492152,0.5619634 0.605547,0.5619634 0.05848,0 0.106317,0.1830509 0.106317,0.4067797 0,0.2937853 -0.04237,0.4067796 -0.152542,0.4067796 -0.08475,0 -0.152542,0.090395 -0.152542,0.2033899 0,0.1118644 -0.04576,0.2033898 -0.101695,0.2033898 -0.05593,0 -0.101695,0.1144068 -0.101695,0.2542373 0,0.1398305 -0.04576,0.2542373 -0.101695,0.2542373 -0.05593,0 -0.101695,0.094794 -0.101695,0.2106538 0,0.2251452 -0.220053,0.501211 -0.399516,0.501211 -0.05993,0 -0.108959,0.114406 -0.108959,0.254237 0,0.13983 -0.04576,0.254237 -0.101695,0.254237 -0.05593,0 -0.101695,0.09153 -0.101695,0.20339 0,0.111864 -0.04576,0.20339 -0.101694,0.20339 -0.05593,0 -0.101695,0.06864 -0.101695,0.152542 0,0.0839 -0.04576,0.152543 -0.101695,0.152543 -0.05593,0 -0.101695,0.09153 -0.101695,0.203389 0,0.112995 -0.0678,0.20339 -0.152543,0.20339 -0.0839,0 -0.152542,0.06864 -0.152542,0.152543 0,0.0839 -0.04576,0.152542 -0.101695,0.152542 -0.05593,0 -0.101695,0.09153 -0.101695,0.20339 0,0.111864 -0.04576,0.20339 -0.101695,0.20339 -0.05593,0 -0.101695,0.06864 -0.101695,0.152542 0,0.0839 -0.04576,0.152542 -0.101695,0.152542 -0.05593,0 -0.101694,0.09153 -0.101694,0.20339 0,0.112994 -0.0678,0.20339 -0.152543,0.20339 -0.0839,0 -0.152542,0.05854 -0.152542,0.130092 0,0.07155 -0.09153,0.19606 -0.20339,0.276688 -0.111864,0.08063 -0.20339,0.231286 -0.20339,0.334799 0,0.181325 -0.221126,0.47876 -0.355932,0.47876 -0.09542,0 -0.355932,0.275981 -0.355932,0.377065 0,0.04758 -0.09153,0.152477 -0.20339,0.233105 -0.111864,0.08063 -0.20339,0.205136 -0.20339,0.276687 0,0.07155 -0.05854,0.130092 -0.130092,0.130092 -0.07155,0 -0.19606,0.09153 -0.276688,0.20339 -0.08063,0.111864 -0.228018,0.20339 -0.327534,0.20339 -0.09952,0 -0.18094,0.06864 -0.18094,0.152542 0,0.09492 -0.09605,0.152543 -0.254237,0.152543 -0.139831,0 -0.254238,0.04576 -0.254238,0.101694 0,0.05593 -0.09152,0.101695 -0.20339,0.101695 -0.111864,0 -0.203389,0.04576 -0.203389,0.101695 0,0.05811 -0.305085,0.101695 -0.711865,0.101695 -0.564972,0 -0.711864,0.03148 -0.711864,0.152543 0,0.119948 -0.141243,0.152542 -0.661017,0.152542 -0.519774,0 -0.661017,-0.03259 -0.661017,-0.152542 0,-0.118645 -0.135593,-0.152543 -0.61017,-0.152543 -0.338983,0 -0.610169,-0.0452 -0.610169,-0.101695 0,-0.05593 -0.09153,-0.101695 -0.20339,-0.101695 -0.111864,0 -0.20339,-0.04576 -0.20339,-0.101695 0,-0.05593 -0.160169,-0.101694 -0.355932,-0.101694 -0.1957626,0 -0.3559321,-0.04903 -0.3559321,-0.108959 0,-0.16472 -0.2689485,-0.399516 -0.4576272,-0.399516 -0.1627733,0 -0.4576271,0.227629 -0.4576271,0.353291 0,0.105233 -0.4921524,0.561963 -0.6055469,0.561963 -0.058475,0 -0.1063175,0.05028 -0.1063175,0.111742 0,0.06146 -0.1372881,0.239987 -0.3050847,0.396733 -0.1677966,0.156745 -0.3050848,0.335276 -0.3050848,0.396733 0,0.06146 -0.049031,0.111741 -0.1089588,0.111741 -0.226467,0 -0.3995157,0.305195 -0.3995157,0.704601 0,0.227724 0.045763,0.414043 0.1016949,0.414043 0.055932,0 0.1016949,0.114407 0.1016949,0.254238 0,0.158192 0.057627,0.254237 0.1525424,0.254237 0.1259079,0 0.1525423,0.18644 0.1525423,1.067797 0,0.881356 -0.026634,1.067796 -0.1525423,1.067796 -0.094915,0 -0.1525424,0.09605 -0.1525424,0.254238 0,0.287328 -0.269774,0.344359 -0.4830509,0.102119 z M 19.118644,9.4372882 c 0,-0.1129944 0.0678,-0.2033899 0.152542,-0.2033899 0.0839,0 0.152543,-0.068644 0.152543,-0.1525423 0,-0.083898 0.04576,-0.1525424 0.101695,-0.1525424 0.05593,0 0.101695,-0.2059322 0.101695,-0.4576271 0,-0.2516949 -0.04576,-0.4576271 -0.101695,-0.4576271 -0.05593,0 -0.101695,-0.068644 -0.101695,-0.1525424 0,-0.083898 -0.04784,-0.1525424 -0.106317,-0.1525424 -0.113395,0 -0.605548,-0.4567304 -0.605548,-0.5619634 0,-0.082837 -0.272475,-0.3532908 -0.355932,-0.3532908 C 18.272475,6.7932204 18,6.5227669 18,6.4399296 18,6.3346965 17.507847,5.8779661 17.394453,5.8779661 c -0.05847,0 -0.106317,-0.050284 -0.106317,-0.1117413 0,-0.061458 -0.137289,-0.2399877 -0.305085,-0.3967332 -0.167797,-0.1567456 -0.305085,-0.3352755 -0.305085,-0.3967333 0,-0.061458 -0.04784,-0.1117413 -0.106317,-0.1117413 -0.113395,0 -0.605547,-0.4567304 -0.605547,-0.5619635 0,-0.034504 -0.06538,-0.1281091 -0.145279,-0.2080123 -0.163968,-0.1639691 -0.973365,-0.2002107 -0.973365,-0.043584 0,0.055932 -0.06864,0.1016949 -0.152543,0.1016949 -0.0839,0 -0.152542,0.068644 -0.152542,0.1525424 0,0.084746 -0.0904,0.1525423 -0.20339,0.1525423 -0.111864,0 -0.20339,0.045763 -0.20339,0.1016949 0,0.055932 -0.09479,0.101695 -0.210654,0.101695 -0.225145,0 -0.50121,0.2200521 -0.50121,0.3995157 0,0.059927 -0.09153,0.1089588 -0.20339,0.1089588 -0.111864,0 -0.20339,0.045763 -0.20339,0.101695 0,0.055932 -0.06864,0.1016949 -0.152542,0.1016949 -0.0839,0 -0.152543,0.045763 -0.152543,0.1016949 0,0.055932 -0.09153,0.1016949 -0.203389,0.1016949 -0.111865,0 -0.20339,0.049031 -0.20339,0.1089589 0,0.1647194 -0.268949,0.3995157 -0.457627,0.3995157 -0.188679,0 -0.457627,0.2347962 -0.457627,0.3995157 0,0.059927 -0.09361,0.1089588 -0.208013,0.1089588 -0.189282,0 -0.707242,0.4115632 -0.707242,0.5619635 0,0.082837 -0.272475,0.3532908 -0.355932,0.3532908 -0.09542,0 -0.3559321,0.2759803 -0.3559321,0.3770656 0,0.04758 -0.091525,0.1524766 -0.2033899,0.2331039 -0.1118644,0.080627 -0.2033898,0.2051366 -0.2033898,0.2766873 0,0.071551 -0.068644,0.1300923 -0.1525424,0.1300923 -0.084746,0 -0.1525423,0.090395 -0.1525423,0.2033899 0,0.1118644 -0.045763,0.2033898 -0.101695,0.2033898 -0.055932,0 -0.1016949,0.1601695 -0.1016949,0.3559322 l 0,0.3559322 5.1355934,0 c 5.067796,0 5.135593,-0.00268 5.135593,-0.2033898 z"
     id="path3333"
     inkscape:connector-curvature="0" />
  <path
     style="fill:none"
     d="m 6.8542373,21.742373 c 0,-0.05593 -0.068644,-0.101695 -0.1525424,-0.101695 -0.083898,0 -0.1525424,-0.05854 -0.1525424,-0.130092 0,-0.07155 -0.091525,-0.19606 -0.2033898,-0.276688 -0.1118644,-0.08063 -0.2033898,-0.185524 -0.2033898,-0.233104 0,-0.101084 -0.2605124,-0.377065 -0.3559322,-0.377065 -0.083457,0 -0.3559322,-0.270454 -0.3559322,-0.353291 0,-0.105233 -0.4921525,-0.561963 -0.605547,-0.561963 -0.058474,0 -0.1063174,-0.05028 -0.1063174,-0.111742 0,-0.06146 -0.1372882,-0.239988 -0.3050848,-0.396733 -0.1677966,-0.156745 -0.3050847,-0.335276 -0.3050847,-0.396733 0,-0.06146 -0.047843,-0.111742 -0.1063175,-0.111742 -0.1133945,0 -0.6055469,-0.45673 -0.6055469,-0.561963 0,-0.08284 -0.2724756,-0.353291 -0.3559322,-0.353291 -0.1055903,0 -0.3559322,-0.280996 -0.3559322,-0.399515 0,-0.05993 -0.045763,-0.108959 -0.1016949,-0.108959 -0.055932,0 -0.101695,-0.09153 -0.101695,-0.20339 0,-0.135593 0.067797,-0.20339 0.2033899,-0.20339 0.1129943,0 0.2033898,-0.0678 0.2033898,-0.152542 0,-0.125909 0.1864407,-0.152543 1.0677966,-0.152543 0.881356,0 1.0677966,0.02663 1.0677966,0.152543 0,0.08475 0.090396,0.152542 0.2033898,0.152542 0.1118645,0 0.2033899,0.04576 0.2033899,0.101695 0,0.05593 0.1863196,0.101695 0.4140436,0.101695 0.3994054,0 0.7046004,-0.173049 0.7046004,-0.399516 0,-0.05993 0.047843,-0.108959 0.1063175,-0.108959 0.1133945,0 0.605547,-0.45673 0.605547,-0.561963 0,-0.08284 0.2724755,-0.353291 0.3559322,-0.353291 0.09542,0 0.3559322,-0.275981 0.3559322,-0.377065 0,-0.04758 0.091525,-0.152477 0.2033898,-0.233104 0.2606235,-0.187847 0.2606235,-0.524018 0,-0.711865 -0.1118644,-0.08063 -0.2033898,-0.2509 -0.2033898,-0.378382 0,-0.127483 -0.045763,-0.231787 -0.101695,-0.231787 -0.055932,0 -0.1016949,-0.114407 -0.1016949,-0.254238 0,-0.158192 -0.057627,-0.254237 -0.1525423,-0.254237 -0.1171033,0 -0.1525424,-0.129944 -0.1525424,-0.559322 0,-0.307627 -0.045763,-0.559322 -0.1016949,-0.559322 -0.06066,0 -0.1016949,-0.389831 -0.1016949,-0.966102 0,-0.576271 0.041035,-0.966101 0.1016949,-0.966101 0.056497,0 0.1016949,-0.2711869 0.1016949,-0.6101699 0,-0.4745763 0.033898,-0.6101695 0.1525424,-0.6101695 0.084746,0 0.1525423,-0.090395 0.1525423,-0.2033898 0,-0.1118644 0.045763,-0.2033899 0.1016949,-0.2033899 0.055932,0 0.101695,-0.1144067 0.101695,-0.2542372 0,-0.1398306 0.045763,-0.2542373 0.1016949,-0.2542373 0.055932,0 0.1016949,-0.094794 0.1016949,-0.2106538 0,-0.2251453 0.2200521,-0.5012106 0.3995157,-0.5012106 0.059927,0 0.1089589,-0.050284 0.1089589,-0.1117414 0,-0.061458 0.1372881,-0.2399877 0.3050847,-0.3967332 0.1677966,-0.1567455 0.3050848,-0.3352754 0.3050848,-0.3967332 0,-0.061458 0.047843,-0.1117414 0.1063174,-0.1117414 0.1380447,0 0.6055473,-0.4675023 0.6055473,-0.6055469 0,-0.058475 0.104304,-0.1063175 0.231787,-0.1063175 0.127483,0 0.297755,-0.091525 0.378382,-0.2033898 0.08063,-0.1118644 0.228018,-0.2033899 0.327535,-0.2033899 0.09952,0 0.18094,-0.068644 0.18094,-0.1525423 0,-0.083898 0.06864,-0.1525424 0.152542,-0.1525424 0.0839,0 0.152542,-0.045763 0.152542,-0.1016949 0,-0.055932 0.07191,-0.1016949 0.159807,-0.1016949 0.182643,0 0.450363,-0.2374937 0.450363,-0.3995157 0,-0.059927 0.104304,-0.1089589 0.231787,-0.1089589 0.127483,0 0.297755,-0.091525 0.378382,-0.2033898 0.08063,-0.1118645 0.2509,-0.2033899 0.378383,-0.2033899 0.138236,0 0.231787,-0.061567 0.231787,-0.1525424 0,-0.083898 0.08142,-0.1525423 0.18094,-0.1525423 0.09952,0 0.246907,-0.091525 0.327535,-0.2033899 0.08063,-0.1118644 0.250899,-0.2033898 0.378382,-0.2033898 0.138236,0 0.231787,-0.061567 0.231787,-0.1525424 0,-0.084746 0.0904,-0.1525423 0.20339,-0.1525423 0.111864,0 0.20339,-0.045763 0.20339,-0.1016949 0,-0.055932 0.114406,-0.101695 0.254237,-0.101695 0.13983,0 0.254237,-0.045763 0.254237,-0.1016949 0,-0.2076645 0.618767,-0.1023425 0.869029,0.1479199 0.137288,0.1372881 0.249615,0.277845 0.249615,0.3123487 0,0.082837 0.272476,0.3532907 0.355933,0.3532907 0.08346,0 0.355932,0.2704535 0.355932,0.3532908 0,0.1052331 0.492152,0.5619635 0.605547,0.5619635 0.05848,0 0.106317,0.050284 0.106317,0.1117413 0,0.061458 0.137288,0.2399877 0.305085,0.3967333 0.167796,0.1567455 0.305085,0.3352754 0.305085,0.3967332 0,0.061458 0.04784,0.1117413 0.106317,0.1117413 0.113394,0 0.605547,0.4567304 0.605547,0.5619635 0,0.082837 0.272475,0.3532908 0.355932,0.3532908 0.08346,0 0.355932,0.2704534 0.355932,0.3532908 0,0.105233 0.492153,0.5619634 0.605548,0.5619634 0.05847,0 0.106317,0.050284 0.106317,0.1117414 0,0.061458 0.137288,0.2399877 0.305085,0.3967332 0.229672,0.2145466 0.305084,0.3754557 0.305084,0.6509705 0,0.2012882 -0.04576,0.3659786 -0.101695,0.3659786 -0.05593,0 -0.101694,0.091525 -0.101694,0.2033899 0,0.1118644 -0.04576,0.2033898 -0.101695,0.2033898 -0.05593,0 -0.101695,0.1144068 -0.101695,0.2542373 0,0.1398305 -0.04576,0.2542373 -0.101695,0.2542373 -0.05593,0 -0.101695,0.1144068 -0.101695,0.2542373 0,0.1398305 -0.04903,0.2542373 -0.108959,0.2542373 -0.179463,0 -0.399516,0.2760652 -0.399516,0.5012102 0,0.11586 -0.04576,0.210654 -0.101695,0.210654 -0.05593,0 -0.101695,0.09153 -0.101695,0.20339 0,0.111864 -0.04576,0.20339 -0.101694,0.20339 -0.05593,0 -0.101695,0.06864 -0.101695,0.152542 0,0.0839 -0.06864,0.152543 -0.152543,0.152543 -0.08474,0 -0.152542,0.0904 -0.152542,0.203389 0,0.111865 -0.04576,0.20339 -0.101695,0.20339 -0.05593,0 -0.101695,0.06864 -0.101695,0.152543 0,0.0839 -0.04576,0.152542 -0.101695,0.152542 -0.05593,0 -0.101695,0.09153 -0.101695,0.20339 0,0.111864 -0.04576,0.20339 -0.101695,0.20339 -0.05593,0 -0.101695,0.06864 -0.101695,0.152542 0,0.0839 -0.06864,0.152542 -0.152542,0.152542 -0.08475,0 -0.152542,0.0904 -0.152542,0.20339 0,0.111865 -0.04576,0.20339 -0.101695,0.20339 -0.05593,0 -0.101695,0.05854 -0.101695,0.130092 0,0.07155 -0.09153,0.19606 -0.20339,0.276688 -0.111864,0.08063 -0.20339,0.250899 -0.20339,0.378382 0,0.127483 -0.04903,0.231787 -0.108959,0.231787 -0.117019,0 -0.399515,0.249811 -0.399515,0.353291 0,0.105233 -0.492153,0.561963 -0.605548,0.561963 -0.05847,0 -0.106317,0.04784 -0.106317,0.106317 0,0.185314 -0.490808,0.605548 -0.707242,0.605548 -0.117103,0 -0.208012,0.06667 -0.208012,0.152542 0,0.08475 -0.0904,0.152543 -0.20339,0.152543 -0.111864,0 -0.20339,0.04576 -0.20339,0.101694 0,0.05593 -0.114407,0.101695 -0.254237,0.101695 -0.139831,0 -0.254237,0.04576 -0.254237,0.101695 0,0.05737 -0.288136,0.101695 -0.661017,0.101695 -0.519774,0 -0.661017,0.03259 -0.661017,0.152543 0,0.121065 -0.146892,0.152542 -0.711865,0.152542 -0.564971,0 -0.711864,-0.03148 -0.711864,-0.152542 0,-0.117104 -0.129944,-0.152543 -0.559322,-0.152543 -0.307627,0 -0.559322,-0.04576 -0.559322,-0.101695 0,-0.05593 -0.09153,-0.101695 -0.20339,-0.101695 -0.111864,0 -0.20339,-0.04576 -0.20339,-0.101695 0,-0.05593 -0.160169,-0.101694 -0.355932,-0.101694 -0.1957627,0 -0.3559322,-0.04903 -0.3559322,-0.108959 0,-0.16472 -0.2689484,-0.399516 -0.4576271,-0.399516 -0.1644081,0 -0.4576271,0.228059 -0.4576271,0.355932 0,0.08485 -0.2710794,0.355932 -0.3559322,0.355932 -0.083457,0 -0.3559322,0.270454 -0.3559322,0.353292 0,0.105232 -0.4921525,0.561963 -0.605547,0.561963 -0.058474,0 -0.1063174,0.05854 -0.1063174,0.130092 0,0.07155 -0.091525,0.19606 -0.2033898,0.276687 -0.1488654,0.107297 -0.2033899,0.263257 -0.2033899,0.581773 0,0.239347 0.045763,0.435176 0.1016949,0.435176 0.055932,0 0.101695,0.114407 0.101695,0.254238 0,0.13983 0.045763,0.254237 0.1016949,0.254237 0.06134,0 0.1016949,0.423729 0.1016949,1.067797 0,0.644067 -0.040355,1.067796 -0.1016949,1.067796 -0.055932,0 -0.1016949,0.114407 -0.1016949,0.254238 0,0.18644 -0.054237,0.254237 -0.2033899,0.254237 -0.1118644,0 -0.2033898,-0.04576 -0.2033898,-0.101695 z M 19.159322,9.4372882 c 0,-0.1118644 0.04576,-0.2033899 0.101695,-0.2033899 0.05593,0 0.101695,-0.068644 0.101695,-0.1525423 0,-0.083898 0.06864,-0.1525424 0.152542,-0.1525424 0.112994,0 0.152543,-0.1186441 0.152543,-0.4576271 0,-0.338983 -0.03955,-0.4576271 -0.152543,-0.4576271 -0.0839,0 -0.152542,-0.050284 -0.152542,-0.1117414 0,-0.061458 -0.137288,-0.2399877 -0.305085,-0.3967332 -0.167796,-0.1567455 -0.305085,-0.3352754 -0.305085,-0.3967332 0,-0.061458 -0.04784,-0.1117414 -0.106317,-0.1117414 -0.113394,0 -0.605547,-0.4567304 -0.605547,-0.5619634 0,-0.082837 -0.272475,-0.3532908 -0.355932,-0.3532908 -0.08346,0 -0.355932,-0.2704535 -0.355932,-0.3532908 0,-0.1052331 -0.492153,-0.5619635 -0.605548,-0.5619635 -0.05847,0 -0.106317,-0.050284 -0.106317,-0.1117413 0,-0.061458 -0.137288,-0.2399877 -0.305085,-0.3967332 C 16.144068,4.5008816 16.00678,4.3223517 16.00678,4.2608939 c 0,-0.061458 -0.06864,-0.1117413 -0.152543,-0.1117413 -0.0839,0 -0.152542,-0.045763 -0.152542,-0.1016949 0,-0.055932 -0.186319,-0.1016949 -0.414044,-0.1016949 -0.399406,0 -0.7046,0.1730487 -0.7046,0.3995156 0,0.059927 -0.09153,0.1089589 -0.20339,0.1089589 -0.111864,0 -0.20339,0.045763 -0.20339,0.1016949 0,0.055932 -0.09479,0.101695 -0.210654,0.101695 -0.225145,0 -0.50121,0.2200521 -0.50121,0.3995157 0,0.059927 -0.104305,0.1089588 -0.231787,0.1089588 -0.127483,0 -0.297755,0.091526 -0.378383,0.2033899 -0.08063,0.1118644 -0.228018,0.2033898 -0.327535,0.2033898 -0.09952,0 -0.180939,0.068644 -0.180939,0.1525424 0,0.083898 -0.06864,0.1525423 -0.152543,0.1525423 -0.0839,0 -0.152542,0.045763 -0.152542,0.101695 0,0.055932 -0.07191,0.1016949 -0.159806,0.1016949 -0.182643,0 -0.450364,0.2374936 -0.450364,0.3995157 0,0.059927 -0.09361,0.1089588 -0.208012,0.1089588 -0.216434,0 -0.707242,0.4202342 -0.707242,0.605547 0,0.058475 -0.04784,0.1063175 -0.106317,0.1063175 -0.113395,0 -0.6055472,0.4567303 -0.6055472,0.5619634 0,0.1034803 -0.282496,0.3532908 -0.3995157,0.3532908 -0.059927,0 -0.1089588,0.068644 -0.1089588,0.1525424 0,0.083898 -0.045763,0.1525423 -0.101695,0.1525423 -0.055932,0 -0.1016949,0.091525 -0.1016949,0.2033899 0,0.1118644 -0.045763,0.2033898 -0.1016949,0.2033898 -0.055932,0 -0.1016949,0.1601695 -0.1016949,0.3559322 l 0,0.3559322 5.1355934,0 c 5.067796,0 5.135593,-0.00268 5.135593,-0.2033898 z"
     id="path3335"
     inkscape:connector-curvature="0" />
  <path
     style="fill:#666666"
     d="M 10.249985,19.803731 C 6.5492217,12.447342 5.1774725,8.844573 5.3722025,6.9926908 5.5877353,4.9429745 7.0262315,3.1015526 9.1033191,2.2164796 10.001492,1.8337562 10.398124,1.7638214 11.670537,1.7638214 c 1.272413,0 1.669043,0.069935 2.567217,0.4526582 2.037507,0.8682072 3.530876,2.7507447 3.75293,4.7309362 0.201706,1.7987346 -1.240088,5.5819352 -4.899597,12.8563152 -0.710117,1.411574 -1.349366,2.566499 -1.42055,2.566499 -0.07119,0 -0.710434,-1.154925 -1.420552,-2.566499 z m 2.588889,-9.9654169 c 1.073374,-0.4486545 1.575929,-1.1902548 1.575929,-2.3255309 0,-1.5557978 -1.034385,-2.4969719 -2.744266,-2.4969719 -1.7098809,0 -2.7442679,0.9411741 -2.7442679,2.4969719 0,1.1352761 0.502556,1.8768764 1.5759299,2.3255309 0.913904,0.3819969 1.422771,0.3819969 2.336675,0 z"
     id="path3369"
     inkscape:connector-curvature="0" />
</svg>
